<?xml version="1.0" standalone="no"?>
<!DOCTYPE svg PUBLIC "-//W3C//DTD SVG 20010904//EN"
 "http://www.w3.org/TR/2001/REC-SVG-20010904/DTD/svg10.dtd">
<svg version="1.0" xmlns="http://www.w3.org/2000/svg"
 width="256.000000pt" height="256.000000pt" viewBox="0 0 256.000000 256.000000"
 preserveAspectRatio="xMidYMid meet">

<g transform="translate(0.000000,256.000000) scale(0.100000,-0.100000)"
fill="#000000" stroke="none">
<path d="M160 2227 c-49 -16 -133 -102 -148 -153 -17 -59 -17 -1529 0 -1588
16 -55 99 -138 154 -154 60 -17 2168 -17 2228 0 55 16 138 99 154 154 17 59
17 1529 0 1588 -16 55 -99 138 -154 154 -56 16 -2181 16 -2234 -1z m1860 -161
c-46 -42 -731 -576 -740 -576 -9 0 -694 534 -740 576 -12 12 103 14 740 14
637 0 752 -2 740 -14z m-1212 -624 l472 -363 472 363 c259 200 475 365 480
366 4 2 8 -296 8 -662 l0 -666 -960 0 -960 0 0 666 c0 366 4 664 8 662 5 -1
221 -166 480 -366z"/>
</g>
</svg>
