<?xml version="1.0" standalone="no"?>
<!DOCTYPE svg PUBLIC "-//W3C//DTD SVG 20010904//EN"
 "http://www.w3.org/TR/2001/REC-SVG-20010904/DTD/svg10.dtd">
<svg version="1.0" xmlns="http://www.w3.org/2000/svg"
 width="980.000000pt" height="980.000000pt" viewBox="0 0 980.000000 980.000000"
 preserveAspectRatio="xMidYMid meet">

<g transform="translate(0.000000,980.000000) scale(0.100000,-0.100000)"
fill="#000000" stroke="none">
<path d="M4625 9793 c-704 -41 -1300 -193 -1882 -480 -469 -231 -901 -544
-1302 -942 -801 -795 -1263 -1723 -1400 -2811 -57 -449 -52 -983 14 -1425 152
-1026 613 -1922 1385 -2695 506 -505 1051 -869 1670 -1113 518 -205 1046 -307
1665 -323 1190 -31 2252 317 3142 1028 628 503 1149 1157 1453 1827 275 607
409 1207 427 1921 21 836 -148 1624 -496 2319 -332 660 -865 1290 -1496 1763
-837 628 -1832 946 -2930 936 -110 -1 -222 -3 -250 -5z m-1248 -2359 c147 -30
254 -106 306 -216 38 -79 49 -139 49 -258 1 -266 -112 -416 -356 -473 -76 -17
-288 -14 -363 6 -226 60 -335 211 -336 463 0 233 145 414 384 478 72 20 222
20 316 0z m3034 -1309 c213 -37 396 -132 549 -284 209 -208 323 -479 359 -855
7 -69 11 -476 11 -1108 l0 -998 -500 0 -500 0 0 928 c0 1089 -2 1125 -86 1298
-86 180 -260 265 -486 236 -211 -26 -332 -134 -435 -387 l-28 -70 -3 -1002 -2
-1003 -499 0 -499 0 -6 1518 c-4 834 -9 1550 -12 1590 l-6 72 430 0 429 0 28
-202 c15 -112 31 -209 35 -217 6 -11 17 -2 41 34 172 249 407 400 699 449 115
19 375 20 481 1z m-2721 -1655 l0 -1590 -485 0 -485 0 0 1590 0 1590 485 0
485 0 0 -1590z"/>
</g>
</svg>
