<svg width="898" height="900" viewBox="0 0 898 900" fill="none" xmlns="http://www.w3.org/2000/svg">
<path d="M895.5 408.05C896.73 421.63 897.58 435.33 897.58 449.24C897.58 435.33 896.73 421.64 895.5 408.05Z" fill="#56676E"/>
<path d="M230 405.68C230 405.68 105.25 865.32 605.26 869.32C762.14 810.92 877.74 667.74 895.26 495.12C896.47 483.18 896.83 471 897.1 458.8C897.15 455.59 897.58 452.47 897.58 449.24C897.58 435.34 896.73 421.63 895.5 408.05C763.4 928.08 179 724.39 230 405.68Z" fill="#56676E"/>
<path d="M488.54 235.07C488.54 235.07 23 105.06 30.16 612.68C54.024 674.023 91.0582 729.381 138.65 774.85C140.65 776.74 142.72 778.53 144.74 780.39C158.202 792.801 172.408 804.379 187.28 815.06C189.59 816.71 191.76 818.53 194.08 820.14C209.811 830.898 226.215 840.638 243.19 849.3C248.12 851.84 253.19 854.16 258.19 856.53C272.798 863.408 287.77 869.484 303.04 874.73C306.79 876.01 310.37 877.61 314.17 878.8C332.476 884.397 351.125 888.806 370 892C375.71 893 381.48 893.84 387.26 894.64C406.841 897.468 426.587 899.001 446.37 899.23C447.13 899.23 447.86 899.35 448.62 899.35C463.54 899.35 478.27 898.55 492.8 897.12C-29.54 772.55 169 188.47 488.54 235.07Z" fill="#56676E"/>
<path d="M670 475.8C670 475.8 780.14 11.46 284.36 32.2C118.11 97.87 0.419983 259.63 0.419983 449.2C0.574583 469.614 2.11479 489.994 5.02998 510.2C109.37 -15.14 703.8 155 670 475.8Z" fill="#56676E"/>
<path d="M431.95 675.62C431.95 675.62 898.3 736.5 869.11 293.11C805.64 122.44 641.76 0.620117 449 0.620117C421.705 0.725596 394.476 3.31292 367.65 8.35012C887.29 72.1401 752.23 680.16 431.95 675.62Z" fill="#56676E"/>
<path d="M578.46 449.25C578.46 474.103 571.09 498.398 557.281 519.062C543.473 539.726 523.847 555.83 500.885 565.339C477.923 574.848 452.657 577.334 428.282 572.483C403.907 567.631 381.519 555.66 363.948 538.084C346.377 520.507 334.413 498.115 329.569 473.739C324.726 449.362 327.22 424.097 336.736 401.138C346.252 378.179 362.363 358.558 383.032 344.757C403.7 330.955 427.997 323.592 452.85 323.6C486.168 323.608 518.119 336.85 541.675 360.413C565.231 383.977 578.463 415.932 578.46 449.25V449.25Z" fill="#4E4F50"/>
</svg>
